<svg xmlns="http://www.w3.org/2000/svg" viewBox="0 0 200 240" fill="none">
  <!-- Background circle -->
  <circle cx="100" cy="100" r="98" fill="#003580"/>
  <circle cx="100" cy="100" r="98" fill="none" stroke="#ffffff" stroke-width="2"/>

  <!-- Outer flame (gold) -->
  <path d="M100 18 C72 42 52 62 52 88 C52 110 64 126 80 132 C74 122 72 110 78 100 C84 88 92 80 100 70 C108 80 116 88 122 100 C128 110 126 122 120 132 C136 126 148 110 148 88 C148 62 128 42 100 18Z" fill="#C8A951"/>

  <!-- Inner flame (white) -->
  <path d="M100 35 C82 55 68 70 68 90 C68 108 80 120 94 124 C90 116 88 106 94 98 C98 91 100 85 100 80 C100 85 102 91 106 98 C112 106 110 116 106 124 C120 120 132 108 132 90 C132 70 118 55 100 35Z" fill="#ffffff"/>

  <!-- Cross in center -->
  <rect x="95" y="74" width="10" height="38" rx="1.5" fill="#003580"/>
  <rect x="82" y="86" width="36" height="10" rx="1.5" fill="#003580"/>

  <!-- Open Bible base -->
  <path d="M64 138 Q100 130 136 138 L136 158 Q100 150 64 158 Z" fill="#C8A951"/>
  <line x1="100" y1="130" x2="100" y2="158" stroke="#003580" stroke-width="1.5"/>

  <!-- Text: SEVENTH-DAY ADVENTIST -->
  <text x="100" y="178" text-anchor="middle" font-family="Arial, sans-serif" font-weight="700" font-size="10.5" fill="#ffffff" letter-spacing="1">SEVENTH-DAY ADVENTIST</text>

  <!-- Text: CHURCH -->
  <text x="100" y="193" text-anchor="middle" font-family="Arial, sans-serif" font-weight="700" font-size="10.5" fill="#C8A951" letter-spacing="3">CHURCH</text>
</svg>
